<svg width="263" height="53" viewBox="0 0 263 53" fill="none" xmlns="http://www.w3.org/2000/svg">
<path d="M4.54688 0.890625C4.28125 1.1875 4.07031 1.57031 3.91406 2.03906C3.77344 2.50781 3.66406 3 3.58594 3.51562C3.50781 4.03125 3.45312 4.54688 3.42188 5.0625C3.40625 5.57812 3.39844 6.02344 3.39844 6.39844C3.39844 8.50781 3.58594 10.5781 3.96094 12.6094C4.35156 14.6406 4.89062 16.625 5.57812 18.5625C6.26562 20.5 7.07812 22.3906 8.01562 24.2344C8.96875 26.0781 10.0156 27.8672 11.1562 29.6016C11.4844 30.1016 11.8359 30.6484 12.2109 31.2422C12.5859 31.8359 12.9453 32.4609 13.2891 33.1172C13.4766 32.5234 13.6641 31.9531 13.8516 31.4062C14.0391 30.8438 14.2188 30.3359 14.3906 29.8828C14.8438 28.6172 15.3281 27.2422 15.8438 25.7578C16.375 24.2734 16.9375 22.75 17.5312 21.1875C18.1406 19.6094 18.7734 18.0234 19.4297 16.4297C20.1016 14.8203 20.7969 13.2656 21.5156 11.7656C22.25 10.2656 23 8.85156 23.7656 7.52344C24.5469 6.19531 25.3516 5.00781 26.1797 3.96094C26.4141 3.66406 26.6953 3.35156 27.0234 3.02344C27.3672 2.67969 27.7344 2.36719 28.125 2.08594C28.5156 1.78906 28.9219 1.54688 29.3438 1.35938C29.7656 1.17188 30.1875 1.07812 30.6094 1.07812C30.7812 1.07812 30.9609 1.11719 31.1484 1.19531C31.3359 1.27344 31.4297 1.41406 31.4297 1.61719C31.4297 1.74219 31.3984 1.85937 31.3359 1.96875C31.2734 2.07813 31.2031 2.17969 31.125 2.27344C27.6875 7.41406 24.5781 12.7266 21.7969 18.2109C19.0156 23.6953 16.4844 29.3047 14.2031 35.0391C14.5 35.7422 14.7344 36.4375 14.9062 37.125C15.0938 37.8125 15.1875 38.4844 15.1875 39.1406C15.1875 39.4062 15.1562 39.7031 15.0938 40.0312C15.0469 40.3594 14.9531 40.6641 14.8125 40.9453C14.6719 41.2422 14.4844 41.4844 14.25 41.6719C14.0156 41.875 13.7266 41.9766 13.3828 41.9766C13.0703 41.9766 12.8203 41.8984 12.6328 41.7422C12.4453 41.5859 12.3047 41.3906 12.2109 41.1562C12.1172 40.9375 12.0547 40.6953 12.0234 40.4297C11.9922 40.1641 11.9766 39.9141 11.9766 39.6797C11.9766 39.1016 12.0312 38.4609 12.1406 37.7578C12.2656 37.0703 12.4141 36.3594 12.5859 35.625C12.3047 35.2031 12 34.7656 11.6719 34.3125C11.3594 33.875 11.0391 33.4375 10.7109 33C10.3984 32.5781 10.0938 32.1719 9.79688 31.7812C9.51562 31.3906 9.26562 31.0312 9.04688 30.7031C8 29.2031 6.97656 27.6641 5.97656 26.0859C4.97656 24.4922 4.08594 22.8594 3.30469 21.1875C2.52344 19.5 1.89062 17.7734 1.40625 16.0078C0.9375 14.2266 0.703125 12.3828 0.703125 10.4766C0.703125 8.67969 0.976562 6.95312 1.52344 5.29688C2.07031 3.625 2.92969 2.09375 4.10156 0.703125L4.54688 0.890625ZM13.7578 37.6641C13.7109 37.5547 13.6562 37.4453 13.5938 37.3359C13.5469 37.2422 13.4922 37.1328 13.4297 37.0078C13.4141 37.0391 13.4062 37.0625 13.4062 37.0781C13.4062 37.1094 13.3984 37.1406 13.3828 37.1719C13.3203 37.4062 13.25 37.6562 13.1719 37.9219C13.0938 38.1875 13.0234 38.4609 12.9609 38.7422C12.8984 39.0234 12.8438 39.2969 12.7969 39.5625C12.7656 39.8438 12.75 40.1016 12.75 40.3359C12.75 40.5391 12.7812 40.75 12.8438 40.9688C12.9062 41.1875 13.0703 41.2969 13.3359 41.2969C13.6953 41.2969 13.9688 41.1719 14.1562 40.9219C14.3438 40.6875 14.4375 40.3984 14.4375 40.0547C14.4375 39.6484 14.3594 39.2422 14.2031 38.8359C14.0469 38.4297 13.8984 38.0391 13.7578 37.6641ZM36.7734 26.0859C36.7734 27.1797 36.5938 28.1953 36.2344 29.1328C35.875 30.0703 35.3672 30.8828 34.7109 31.5703C34.0547 32.2578 33.2656 32.7969 32.3438 33.1875C31.4375 33.5781 30.4297 33.7734 29.3203 33.7734C28.3359 33.7734 27.4453 33.5859 26.6484 33.2109C25.8672 32.8516 25.1953 32.3594 24.6328 31.7344C24.0703 31.1094 23.6406 30.3828 23.3438 29.5547C23.0469 28.7109 22.8984 27.8125 22.8984 26.8594C22.8984 26.0625 23.0078 25.3047 23.2266 24.5859C23.4609 23.8672 23.7812 23.2031 24.1875 22.5938C24.5938 21.9688 25.0781 21.3984 25.6406 20.8828C26.2031 20.3516 26.8125 19.875 27.4688 19.4531L27.75 19.6641C27.0938 20.4297 26.5781 21.2734 26.2031 22.1953C25.8281 23.1172 25.6406 24.0938 25.6406 25.125C25.6406 25.875 25.75 26.6406 25.9688 27.4219C26.2031 28.1875 26.5391 28.8906 26.9766 29.5312C27.4141 30.1719 27.9609 30.6953 28.6172 31.1016C29.2734 31.5078 30.0234 31.7109 30.8672 31.7109C31.3984 31.7109 31.8984 31.6016 32.3672 31.3828C32.8359 31.1641 33.2422 30.8672 33.5859 30.4922C33.9453 30.1172 34.2266 29.6953 34.4297 29.2266C34.6484 28.7422 34.7578 28.2422 34.7578 27.7266C34.7578 27.2266 34.6797 26.7422 34.5234 26.2734C34.3828 25.7891 34.1797 25.3438 33.9141 24.9375C33.6484 24.5156 33.3281 24.1406 32.9531 23.8125C32.5781 23.4688 32.1719 23.1875 31.7344 22.9688C31.4844 22.8438 31.2422 22.75 31.0078 22.6875C30.7891 22.625 30.5469 22.5547 30.2812 22.4766C30.1719 22.4609 30.0547 22.4375 29.9297 22.4062C29.8047 22.3594 29.6875 22.3125 29.5781 22.2656C29.4688 22.2031 29.375 22.125 29.2969 22.0312C29.2188 21.9375 29.1797 21.8203 29.1797 21.6797C29.1797 21.3984 29.2812 21.1406 29.4844 20.9062C29.6875 20.6719 29.9297 20.4688 30.2109 20.2969C30.4922 20.1094 30.7891 19.9688 31.1016 19.875C31.4141 19.7656 31.6875 19.7109 31.9219 19.7109C32.7188 19.7109 33.4219 19.9141 34.0312 20.3203C34.6406 20.7266 35.1484 21.2422 35.5547 21.8672C35.9609 22.4922 36.2656 23.1797 36.4688 23.9297C36.6719 24.6797 36.7734 25.3984 36.7734 26.0859ZM53.5078 40.1016C53.5078 40.9922 53.4219 41.8828 53.25 42.7734C53.0781 43.6641 52.8203 44.5234 52.4766 45.3516C52.1484 46.1953 51.7344 46.9766 51.2344 47.6953C50.7344 48.4297 50.1641 49.0625 49.5234 49.5938C48.8828 50.125 48.1641 50.5469 47.3672 50.8594C46.5859 51.1719 45.7344 51.3281 44.8125 51.3281C43.9531 51.3281 43.1406 51.1562 42.375 50.8125C41.6094 50.4688 40.9375 50.0078 40.3594 49.4297C39.7969 48.8516 39.3516 48.1719 39.0234 47.3906C38.6953 46.625 38.5312 45.8125 38.5312 44.9531C38.5312 44.0156 38.7188 43.1172 39.0938 42.2578C39.4844 41.3984 39.9922 40.6094 40.6172 39.8906C41.2422 39.1719 41.9453 38.5391 42.7266 37.9922C43.5234 37.4453 44.3359 37.0156 45.1641 36.7031L45.3047 36.9844C43.7891 37.8125 42.6172 38.9297 41.7891 40.3359C40.9609 41.7422 40.5469 43.3125 40.5469 45.0469C40.5469 45.75 40.6406 46.4219 40.8281 47.0625C41.0312 47.7188 41.3281 48.2969 41.7188 48.7969C42.1094 49.2969 42.5938 49.6953 43.1719 49.9922C43.7656 50.3047 44.4453 50.4609 45.2109 50.4609C46.2734 50.4609 47.1562 50.1719 47.8594 49.5938C48.5625 49.0156 49.125 48.2891 49.5469 47.4141C49.9688 46.5547 50.2656 45.6172 50.4375 44.6016C50.625 43.5859 50.7188 42.6328 50.7188 41.7422C50.7188 40.7891 50.6406 39.8516 50.4844 38.9297C50.3438 38.0078 50.1641 37.0859 49.9453 36.1641C49.7422 35.2422 49.5312 34.3203 49.3125 33.3984C49.0938 32.4766 48.9141 31.5469 48.7734 30.6094C48.4453 31 48.0938 31.375 47.7188 31.7344C47.3438 32.0781 46.9375 32.3828 46.5 32.6484C46.0781 32.8984 45.625 33.0938 45.1406 33.2344C44.6562 33.3906 44.1484 33.4688 43.6172 33.4688C42.8203 33.4688 42.1172 33.3203 41.5078 33.0234C40.9141 32.7422 40.4141 32.3516 40.0078 31.8516C39.6016 31.3516 39.2891 30.7734 39.0703 30.1172C38.8672 29.4609 38.7656 28.7578 38.7656 28.0078C38.7656 27.1641 38.8828 26.3359 39.1172 25.5234C39.3516 24.7109 39.6797 23.9453 40.1016 23.2266C40.5234 22.5078 41.0234 21.8359 41.6016 21.2109C42.1797 20.5859 42.8047 20.0391 43.4766 19.5703L43.7578 19.7109C43.0859 20.6797 42.5547 21.7266 42.1641 22.8516C41.7891 23.9609 41.6016 25.1016 41.6016 26.2734C41.6016 26.7734 41.6562 27.3125 41.7656 27.8906C41.875 28.4688 42.0469 29 42.2812 29.4844C42.5312 29.9688 42.8594 30.375 43.2656 30.7031C43.6875 31.0156 44.2031 31.1719 44.8125 31.1719C45.5469 31.1719 46.2344 31.0156 46.875 30.7031C47.5156 30.375 48.1016 29.9609 48.6328 29.4609C48.5859 28.8828 48.5625 28.3047 48.5625 27.7266C48.5625 26.9297 48.6172 26.1016 48.7266 25.2422C48.8359 24.3828 49.0312 23.5625 49.3125 22.7812C49.6094 21.9844 50.0078 21.2656 50.5078 20.625C51.0078 19.9688 51.6562 19.4375 52.4531 19.0312L52.6406 19.125C52.2656 19.5156 51.9531 19.9531 51.7031 20.4375C51.4531 20.9062 51.25 21.3984 51.0938 21.9141C50.9531 22.4297 50.8516 22.9609 50.7891 23.5078C50.7422 24.0391 50.7188 24.5625 50.7188 25.0781C50.7188 26.5156 50.8594 27.8516 51.1406 29.0859C51.4375 30.3203 51.7578 31.5312 52.1016 32.7188C52.4609 33.9062 52.7812 35.0938 53.0625 36.2812C53.3594 37.4844 53.5078 38.7578 53.5078 40.1016ZM65.8125 20.7188C65.8125 20.8906 65.75 21.0469 65.625 21.1875C65.5 21.3125 65.3516 21.375 65.1797 21.375C65.0391 21.375 64.8906 21.3359 64.7344 21.2578C64.5781 21.1641 64.3984 21.0625 64.1953 20.9531C64.0078 20.8438 63.7812 20.75 63.5156 20.6719C63.2656 20.5781 62.9766 20.5312 62.6484 20.5312C61.8828 20.5312 61.1953 20.7734 60.5859 21.2578C59.9922 21.7266 59.4844 22.3125 59.0625 23.0156C58.6562 23.7188 58.3438 24.4688 58.125 25.2656C57.9062 26.0625 57.7969 26.7812 57.7969 27.4219C57.7969 27.875 57.8359 28.3203 57.9141 28.7578C57.9922 29.1797 58.125 29.5703 58.3125 29.9297C58.5156 30.2734 58.7891 30.5547 59.1328 30.7734C59.4766 30.9766 59.9141 31.0781 60.4453 31.0781C61.0078 31.0781 61.5469 30.9766 62.0625 30.7734C62.5781 30.5547 63.0625 30.2734 63.5156 29.9297C63.5312 29.4297 63.6094 28.9062 63.75 28.3594C63.9062 27.7969 64.1016 27.25 64.3359 26.7188C64.5703 26.1719 64.8359 25.6562 65.1328 25.1719C65.4453 24.6875 65.7656 24.2578 66.0938 23.8828L66.3984 24.0703C66.2266 24.6016 66.1016 25.1484 66.0234 25.7109C65.9453 26.2734 65.9062 26.8281 65.9062 27.375C65.9062 27.9375 65.9531 28.4688 66.0469 28.9688C66.1406 29.4688 66.3047 29.9062 66.5391 30.2812C66.7734 30.6406 67.0938 30.9297 67.5 31.1484C67.9062 31.3516 68.4297 31.4531 69.0703 31.4531C69.8516 31.4531 70.5703 31.2734 71.2266 30.9141C71.8828 30.5547 72.4609 30.1016 72.9609 29.5547L73.1484 29.6484C72.8672 30.1953 72.5 30.7188 72.0469 31.2188C71.5938 31.7188 71.0859 32.1719 70.5234 32.5781C69.9766 32.9688 69.3906 33.2812 68.7656 33.5156C68.1406 33.75 67.5234 33.8672 66.9141 33.8672C66.0547 33.8672 65.3516 33.6172 64.8047 33.1172C64.2578 32.6328 63.8828 32.0156 63.6797 31.2656C63.0234 31.9219 62.2891 32.4766 61.4766 32.9297C60.6797 33.3672 59.8359 33.5859 58.9453 33.5859C58.2891 33.5859 57.7031 33.4609 57.1875 33.2109C56.6875 32.9766 56.2656 32.6562 55.9219 32.25C55.5781 31.8438 55.3125 31.3672 55.125 30.8203C54.9531 30.2578 54.8672 29.6719 54.8672 29.0625C54.8672 28.3594 54.9766 27.6406 55.1953 26.9062C55.4297 26.1562 55.7422 25.4219 56.1328 24.7031C56.5391 23.9844 57.0156 23.3047 57.5625 22.6641C58.1094 22.0234 58.7031 21.4609 59.3438 20.9766C60 20.4922 60.6875 20.1094 61.4062 19.8281C62.125 19.5469 62.8594 19.4062 63.6094 19.4062C63.7812 19.4062 63.9922 19.4297 64.2422 19.4766C64.4922 19.5078 64.7344 19.5703 64.9688 19.6641C65.2031 19.7578 65.3984 19.8906 65.5547 20.0625C65.7266 20.2344 65.8125 20.4531 65.8125 20.7188ZM84.4922 40.1953C84.4922 41.4609 84.3438 42.75 84.0469 44.0625C83.75 45.3906 83.2812 46.6094 82.6406 47.7188C82 48.8281 81.1719 49.7656 80.1562 50.5312C79.1562 51.2969 77.9453 51.7734 76.5234 51.9609C76.3828 51.9922 76.25 52.0156 76.125 52.0312C76 52.0469 75.8594 52.0547 75.7031 52.0547C74.8438 52.0547 74.0312 51.8828 73.2656 51.5391C72.5 51.1953 71.8281 50.7266 71.25 50.1328C70.6875 49.5547 70.2422 48.875 69.9141 48.0938C69.5859 47.3281 69.4219 46.5234 69.4219 45.6797C69.4219 44.7422 69.6172 43.8438 70.0078 42.9844C70.3828 42.125 70.8828 41.3281 71.5078 40.5938C72.1328 39.875 72.8359 39.2344 73.6172 38.6719C74.4141 38.125 75.2266 37.6875 76.0547 37.3594L76.1953 37.6641C74.6797 38.4766 73.5078 39.5938 72.6797 41.0156C71.8516 42.4375 71.4375 44.0078 71.4375 45.7266C71.4375 46.4297 71.5312 47.1094 71.7188 47.7656C71.9219 48.4375 72.2188 49.0234 72.6094 49.5234C73 50.0234 73.4844 50.4219 74.0625 50.7188C74.6562 51.0312 75.3359 51.1875 76.1016 51.1875C77.1797 51.1875 78.0781 50.9062 78.7969 50.3438C79.5156 49.7812 80.0859 49.0781 80.5078 48.2344C80.9453 47.3906 81.25 46.4688 81.4219 45.4688C81.6094 44.4844 81.7031 43.5625 81.7031 42.7031C81.7031 41.9531 81.6562 41.2188 81.5625 40.5C81.4688 39.7812 81.3672 39.0625 81.2578 38.3438C81.1641 37.6406 81.0703 36.9297 80.9766 36.2109C80.8828 35.4922 80.8359 34.7578 80.8359 34.0078C80.8359 33.4766 80.8516 32.9297 80.8828 32.3672C80.9297 31.8047 81.0078 31.2344 81.1172 30.6562C80.4297 31.4688 79.6328 32.1641 78.7266 32.7422C77.8359 33.3047 76.875 33.5859 75.8438 33.5859C75.2031 33.5859 74.625 33.4609 74.1094 33.2109C73.6094 32.9766 73.1797 32.6562 72.8203 32.25C72.4766 31.8438 72.2109 31.3672 72.0234 30.8203C71.8516 30.2578 71.7656 29.6719 71.7656 29.0625C71.7656 28.3594 71.875 27.6328 72.0938 26.8828C72.3281 26.1172 72.6406 25.3828 73.0312 24.6797C73.4375 23.9609 73.9141 23.2891 74.4609 22.6641C75.0078 22.0234 75.6016 21.4688 76.2422 21C76.8984 20.5156 77.5859 20.1406 78.3047 19.875C79.0234 19.5938 79.7578 19.4531 80.5078 19.4531C80.8828 19.4531 81.2578 19.5078 81.6328 19.6172C82.0234 19.7109 82.375 19.8594 82.6875 20.0625C83.0156 20.2656 83.2734 20.5234 83.4609 20.8359C83.6641 21.1484 83.7656 21.5234 83.7656 21.9609C83.7656 22.2734 83.6953 22.5547 83.5547 22.8047C83.4141 23.0547 83.2344 23.2812 83.0156 23.4844C82.7969 23.6719 82.5547 23.8438 82.2891 24C82.0234 24.1562 81.7656 24.2891 81.5156 24.3984L81.4219 24.1172C81.5469 23.9766 81.6328 23.8047 81.6797 23.6016C81.7266 23.3984 81.75 23.2031 81.75 23.0156C81.75 22.7344 81.7031 22.4531 81.6094 22.1719C81.5312 21.875 81.4062 21.6094 81.2344 21.375C81.0781 21.125 80.875 20.9219 80.625 20.7656C80.375 20.6094 80.0938 20.5312 79.7812 20.5312C78.9844 20.5312 78.2656 20.75 77.625 21.1875C76.9844 21.6094 76.4375 22.1484 75.9844 22.8047C75.5469 23.4609 75.2031 24.1797 74.9531 24.9609C74.7188 25.7266 74.6016 26.4531 74.6016 27.1406C74.6016 27.5938 74.6406 28.0547 74.7188 28.5234C74.8125 28.9922 74.9609 29.4141 75.1641 29.7891C75.3672 30.1641 75.6406 30.4766 75.9844 30.7266C76.3438 30.9609 76.7969 31.0781 77.3438 31.0781C78.1875 31.0781 78.9688 30.8594 79.6875 30.4219C80.4062 29.9688 81.0469 29.4375 81.6094 28.8281C81.8281 28.2031 82.1094 27.6172 82.4531 27.0703C82.8125 26.5078 83.25 26.0234 83.7656 25.6172L84.1641 25.8984C83.8047 26.4766 83.5703 27.1328 83.4609 27.8672C83.3516 28.6016 83.2969 29.3203 83.2969 30.0234C83.2969 30.8516 83.3594 31.6797 83.4844 32.5078C83.6094 33.3359 83.7422 34.1719 83.8828 35.0156C84.0391 35.8594 84.1797 36.7109 84.3047 37.5703C84.4297 38.4297 84.4922 39.3047 84.4922 40.1953ZM101.672 29.6484C101.266 30.2422 100.773 30.7969 100.195 31.3125C99.6328 31.8281 99.0078 32.2734 98.3203 32.6484C97.6484 33.0234 96.9375 33.3203 96.1875 33.5391C95.4531 33.7578 94.7109 33.8672 93.9609 33.8672C92.8984 33.8672 91.9062 33.7266 90.9844 33.4453C90.0625 33.1797 89.2578 32.7656 88.5703 32.2031C87.8828 31.6406 87.3438 30.9375 86.9531 30.0938C86.5625 29.2344 86.3672 28.2344 86.3672 27.0938C86.3672 25.9688 86.5703 24.9219 86.9766 23.9531C87.3984 22.9688 87.9688 22.1172 88.6875 21.3984C89.4219 20.6641 90.2812 20.0859 91.2656 19.6641C92.25 19.2422 93.3047 19.0312 94.4297 19.0312C94.9609 19.0312 95.4531 19.1094 95.9062 19.2656C96.375 19.4062 96.7812 19.625 97.125 19.9219C97.4688 20.2031 97.7344 20.5547 97.9219 20.9766C98.125 21.3984 98.2266 21.8828 98.2266 22.4297C98.2266 23.0859 98.0938 23.6641 97.8281 24.1641C97.5625 24.6641 97.2109 25.1016 96.7734 25.4766C96.3359 25.8516 95.8359 26.1641 95.2734 26.4141C94.7266 26.6641 94.1484 26.8672 93.5391 27.0234C92.9453 27.1797 92.3516 27.2969 91.7578 27.375C91.1797 27.4375 90.6484 27.4688 90.1641 27.4688H89.6016C89.8047 28.8906 90.3672 29.9766 91.2891 30.7266C92.2109 31.4766 93.4844 31.8516 95.1094 31.8516C96.2656 31.8516 97.3906 31.6484 98.4844 31.2422C99.5938 30.8359 100.594 30.2734 101.484 29.5547L101.672 29.6484ZM89.5312 26.7656H90.1172C90.6797 26.7656 91.2578 26.6797 91.8516 26.5078C92.4453 26.3203 92.9766 26.0547 93.4453 25.7109C93.9297 25.3516 94.3281 24.9141 94.6406 24.3984C94.9531 23.8828 95.1094 23.2969 95.1094 22.6406C95.1094 22 94.9688 21.4688 94.6875 21.0469C94.4219 20.625 93.9531 20.4141 93.2812 20.4141C92.5938 20.4141 92.0078 20.625 91.5234 21.0469C91.0547 21.4531 90.6719 21.9609 90.375 22.5703C90.0781 23.1641 89.8594 23.7969 89.7188 24.4688C89.5938 25.125 89.5312 25.7109 89.5312 26.2266V26.7656ZM123.919 7.64303L114.396 33H109.58L100.021 7.64303H104.472L111.988 28.7313L119.541 7.64303H123.919ZM145.822 22.4559C145.822 23.2099 145.773 23.8909 145.676 24.499H130.316C130.438 26.1044 131.034 27.3935 132.104 28.3664C133.174 29.3394 134.487 29.8258 136.044 29.8258C138.282 29.8258 139.863 28.8894 140.787 27.0165H145.275C144.667 28.8651 143.56 30.3853 141.955 31.5771C140.374 32.7446 138.403 33.3284 136.044 33.3284C134.123 33.3284 132.396 32.9027 130.863 32.0514C129.355 31.1758 128.163 29.9596 127.288 28.4029C126.436 26.8219 126.011 24.9977 126.011 22.9302C126.011 20.8627 126.424 19.0506 127.251 17.4939C128.103 15.9129 129.282 14.6968 130.79 13.8455C132.323 12.9941 134.074 12.5685 136.044 12.5685C137.941 12.5685 139.632 12.982 141.116 13.809C142.599 14.636 143.755 15.8035 144.582 17.3115C145.409 18.7952 145.822 20.51 145.822 22.4559ZM141.48 21.1424C141.456 19.6101 140.909 18.3817 139.839 17.4575C138.768 16.5332 137.443 16.071 135.862 16.071C134.427 16.071 133.198 16.5332 132.177 17.4575C131.155 18.3574 130.547 19.5857 130.353 21.1424H141.48ZM160.058 12.5685C161.639 12.5685 163.05 12.8968 164.29 13.5536C165.555 14.2103 166.54 15.1832 167.246 16.4724C167.951 17.7615 168.304 19.3182 168.304 21.1424V33H164.181V21.7627C164.181 19.9627 163.731 18.5885 162.831 17.6399C161.931 16.6669 160.703 16.1805 159.146 16.1805C157.589 16.1805 156.349 16.6669 155.424 17.6399C154.524 18.5885 154.075 19.9627 154.075 21.7627V33H149.915V12.8968H154.075V15.1954C154.756 14.3684 155.619 13.7238 156.665 13.2617C157.735 12.7996 158.866 12.5685 160.058 12.5685ZM178.461 16.2899V27.4178C178.461 28.1718 178.632 28.7191 178.972 29.0596C179.337 29.3758 179.945 29.5339 180.797 29.5339H183.35V33H180.067C178.194 33 176.759 32.5622 175.762 31.6865C174.764 30.8109 174.266 29.388 174.266 27.4178V16.2899H171.894V12.8968H174.266V7.89842H178.461V12.8968H183.35V16.2899H178.461ZM205.39 12.8968V33H201.231V30.6285C200.574 31.4555 199.71 32.1122 198.64 32.5987C197.594 33.0608 196.475 33.2919 195.284 33.2919C193.703 33.2919 192.28 32.9635 191.015 32.3068C189.774 31.6501 188.789 30.6771 188.06 29.388C187.354 28.0989 187.001 26.5422 187.001 24.7179V12.8968H191.124V24.0977C191.124 25.8976 191.574 27.284 192.474 28.257C193.374 29.2056 194.603 29.6799 196.159 29.6799C197.716 29.6799 198.944 29.2056 199.844 28.257C200.768 27.284 201.231 25.8976 201.231 24.0977V12.8968H205.39ZM215.037 15.8156C215.645 14.7941 216.448 14.0036 217.445 13.4441C218.467 12.8604 219.671 12.5685 221.057 12.5685V16.8737H219.999C218.369 16.8737 217.129 17.2872 216.277 18.1142C215.45 18.9412 215.037 20.3762 215.037 22.4194V33H210.878V12.8968H215.037V15.8156ZM243.305 22.4559C243.305 23.2099 243.256 23.8909 243.159 24.499H227.799C227.921 26.1044 228.517 27.3935 229.587 28.3664C230.657 29.3394 231.97 29.8258 233.527 29.8258C235.765 29.8258 237.346 28.8894 238.27 27.0165H242.758C242.15 28.8651 241.043 30.3853 239.438 31.5771C237.857 32.7446 235.886 33.3284 233.527 33.3284C231.606 33.3284 229.879 32.9027 228.346 32.0514C226.838 31.1758 225.646 29.9596 224.771 28.4029C223.919 26.8219 223.494 24.9977 223.494 22.9302C223.494 20.8627 223.907 19.0506 224.734 17.4939C225.586 15.9129 226.765 14.6968 228.273 13.8455C229.806 12.9941 231.557 12.5685 233.527 12.5685C235.424 12.5685 237.115 12.982 238.598 13.809C240.082 14.636 241.238 15.8035 242.065 17.3115C242.892 18.7952 243.305 20.51 243.305 22.4559ZM238.963 21.1424C238.939 19.6101 238.392 18.3817 237.322 17.4575C236.251 16.5332 234.926 16.071 233.345 16.071C231.91 16.071 230.681 16.5332 229.66 17.4575C228.638 18.3574 228.03 19.5857 227.835 21.1424H238.963ZM254.695 33.3284C253.114 33.3284 251.691 33.0486 250.426 32.4892C249.186 31.9055 248.201 31.1271 247.471 30.1542C246.741 29.1569 246.352 28.0502 246.304 26.8341H250.609C250.682 27.6854 251.083 28.4029 251.813 28.9867C252.567 29.5461 253.503 29.8258 254.622 29.8258C255.79 29.8258 256.69 29.6069 257.322 29.1691C257.979 28.7069 258.307 28.1232 258.307 27.4178C258.307 26.6638 257.942 26.1044 257.213 25.7395C256.507 25.3747 255.376 24.9733 253.82 24.5355C252.311 24.122 251.083 23.7207 250.135 23.3315C249.186 22.9423 248.359 22.3464 247.654 21.5438C246.973 20.7411 246.632 19.683 246.632 18.3696C246.632 17.2994 246.948 16.3264 247.581 15.4508C248.213 14.5508 249.113 13.8455 250.28 13.3347C251.472 12.8239 252.834 12.5685 254.367 12.5685C256.653 12.5685 258.49 13.1522 259.876 14.3198C261.287 15.4629 262.041 17.0318 262.138 19.0263H257.979C257.906 18.1263 257.541 17.4088 256.884 16.8737C256.228 16.3386 255.34 16.071 254.221 16.071C253.126 16.071 252.287 16.2778 251.703 16.6913C251.12 17.1048 250.828 17.652 250.828 18.3331C250.828 18.8682 251.022 19.3182 251.412 19.683C251.801 20.0479 252.275 20.3398 252.834 20.5587C253.394 20.7533 254.221 21.0086 255.315 21.3248C256.775 21.714 257.967 22.1154 258.891 22.5288C259.84 22.918 260.654 23.5018 261.335 24.2801C262.016 25.0585 262.369 26.0922 262.393 27.3813C262.393 28.5245 262.077 29.5461 261.445 30.4461C260.812 31.346 259.912 32.0514 258.745 32.5622C257.602 33.073 256.252 33.3284 254.695 33.3284Z" fill="#111111"/>
</svg>
